<svg width="59" height="61" viewBox="0 0 59 61" fill="none" xmlns="http://www.w3.org/2000/svg">
<path d="M29.5 0.983765L55.0477 20.5227H3.95225L29.5 0.983765Z" fill="#FEFEFE"/>
<path d="M29.5 7.11365L41.7762 16.3085H17.2238L29.5 7.11365Z" fill="#4E4F5D"/>
<path d="M9.51408 29.7711C5.93832 29.7711 4.7464 26.4151 4.59741 24.7371V57.6522C4.59741 57.6522 4.59741 60.75 9.51408 60.75C13.4474 60.75 15.0267 58.6848 15.3247 57.6522V24.7371C14.8777 26.4151 13.0898 29.7711 9.51408 29.7711Z" fill="#FEFEFE"/>
<path d="M22.5401 29.7711C18.9643 29.7711 17.7724 26.4151 17.6234 24.7371V57.6522C17.6234 57.6522 17.6234 60.75 22.5401 60.75C26.4734 60.75 28.0527 58.6848 28.3507 57.6522V24.7371C27.9037 26.4151 26.1158 29.7711 22.5401 29.7711Z" fill="#FEFEFE"/>
<path d="M35.566 29.7711C31.9902 29.7711 30.7983 26.4151 30.6493 24.7371V57.6522C30.6493 57.6522 30.6493 60.75 35.566 60.75C39.4993 60.75 41.0786 58.6848 41.3766 57.6522V24.7371C40.9296 26.4151 39.1417 29.7711 35.566 29.7711Z" fill="#FEFEFE"/>
<path d="M48.592 29.7711C45.0162 29.7711 43.8243 26.4151 43.6753 24.7371V57.6522C43.6753 57.6522 43.6753 60.75 48.592 60.75C52.5253 60.75 54.1046 58.6848 54.4026 57.6522V24.7371C53.9556 26.4151 52.1677 29.7711 48.592 29.7711Z" fill="#FEFEFE"/>
</svg>
